Coordinates
version=1
nRows=10
nColumns=60
inDegrees=yes

Units are S.I. units (second, meters, Newtons, ...)
If the header above contains a line with 'inDegrees', this indicates whether rotational values are in degrees (yes) or radians (no).

endheader
time	pelvis_tilt	pelvis_list	pelvis_rotation	pelvis_tx	pelvis_ty	pelvis_tz	hip_flexion_r	hip_adduction_r	hip_rotation_r	knee_angle_r_beta	knee_angle_r	ankle_angle_r	subtalar_angle_r	mtp_angle_r	hip_flexion_l	hip_adduction_l	hip_rotation_l	knee_angle_l_beta	knee_angle_l	ankle_angle_l	subtalar_angle_l	mtp_angle_l	L5_S1_Flex_Ext	L5_S1_Lat_Bending	L5_S1_axial_rotation	L4_L5_Flex_Ext	L4_L5_Lat_Bending	L4_L5_axial_rotation	L3_L4_Flex_Ext	L3_L4_Lat_Bending	L3_L4_axial_rotation	L2_L3_Flex_Ext	L2_L3_Lat_Bending	L2_L3_axial_rotation	L1_L2_Flex_Ext	L1_L2_Lat_Bending	L1_L2_axial_rotation	L1_T12_Flex_Ext	L1_T12_Lat_Bending	L1_T12_axial_rotation	Abs_r3	Abs_r2	Abs_r1	Abs_t1	Abs_t2	arm_flex_r	arm_add_r	arm_rot_r	elbow_flex_r	pro_sup_r	wrist_flex_r	wrist_dev_r	arm_flex_l	arm_add_l	arm_rot_l	elbow_flex_l	pro_sup_l	wrist_flex_l	wrist_dev_l
     32.53000000	      0.24647188	      3.70491336	     93.90440273	      0.40279308	      0.93597099	      0.30669159	      8.09765041	     -4.76183311	     -0.15228384	      0.27969748	    -16.02548537	      6.61328681	      0.00000000	      0.00000000	      8.11508522	     -5.55400220	      1.19745024	      0.21737261	    -12.45453322	      5.08736687	      0.00000000	      0.00000000	     -6.50106476	      0.15253795	     -0.34384298	    -12.07312737	      0.20287548	     -0.36533317	    -10.68059929	      0.37088078	     -0.36533317	     -7.43006691	      0.37088078	     -0.30086261	     -6.03688874	      0.31105539	     -0.27937242	     -3.71470840	      0.23628129	     -0.25788223	    -46.43645548	      1.72553984	     -1.91235150	      0.00000000	      0.00000000	     52.28583531	    -23.62974279	      6.31974304	     76.38176824	     64.02031099	     13.24981688	     19.18595206	     59.64712363	    -25.25430236	     20.24488275	     69.53274319	     51.73108709	     12.35171403	     12.65804857
     32.54000000	      0.30629204	      4.11790992	     93.92847928	      0.40272184	      0.93664352	      0.30455204	      7.48341403	     -4.66906612	     -0.19999663	      0.27940771	    -16.00888265	      6.61800717	      0.00000000	      0.00000000	      7.60476843	     -5.65809650	      1.18703168	      0.22001401	    -12.60587424	      5.22066867	      0.00000000	      0.00000000	     -6.50305490	      0.15026971	     -0.38214821	    -12.07682326	      0.19985872	     -0.40603247	    -10.68386890	      0.36536578	     -0.40603247	     -7.43234145	      0.36536578	     -0.33437968	     -6.03873678	      0.30642999	     -0.31049542	     -3.71584557	      0.23276778	     -0.28661115	    -46.45067086	      1.69988103	     -2.12539368	      0.00000000	      0.00000000	     50.22371434	    -23.43917646	      5.44932016	     78.27524069	     66.60682866	     11.59925203	     20.32576591	     57.05268151	    -25.35433660	     18.22462591	     71.98717876	     56.82725355	      9.55879100	     14.25940700
     32.55000000	      0.28721493	      4.55971221	     93.96343886	      0.40267708	      0.93729318	      0.30232682	      6.77161195	     -4.66172131	     -0.34345894	      0.27703077	    -15.87269418	      6.79861672	      0.00000000	      0.00000000	      7.03062458	     -5.67749982	      1.07372361	      0.22186645	    -12.71201123	      5.52646459	      0.00000000	      0.00000000	     -6.50500631	      0.14378663	     -0.38427242	    -12.08044722	      0.19123622	     -0.40828945	    -10.68707487	      0.34960282	     -0.40828945	     -7.43457171	      0.34960282	     -0.33623837	     -6.04054886	      0.29320970	     -0.31222134	     -3.71696061	      0.22272549	     -0.28820432	    -46.46460958	      1.62654315	     -2.13720792	      0.00000000	      0.00000000	     47.94679576	    -23.54690612	      4.51747782	     80.24724327	     66.61790431	     11.50820135	     20.25259063	     54.86667239	    -25.47112481	     17.16018008	     73.93415373	     56.90302606	      9.40276906	     14.21805395
     32.56000000	      0.32821892	      5.01357123	     93.97860199	      0.40263934	      0.93795882	      0.30016358	      6.08677704	     -4.58626413	     -0.42169028	      0.27611363	    -15.82014575	      6.84090374	      0.00000000	      0.00000000	      6.47131675	     -5.77119322	      1.03202547	      0.22444510	    -12.85975672	      5.72953190	      0.00000000	      0.00000000	     -6.51342978	      0.14303599	     -0.38902007	    -12.09609044	      0.19023786	     -0.41333382	    -10.70091378	      0.34777770	     -0.41333382	     -7.44419889	      0.34777770	     -0.34039256	     -6.04837089	      0.29167899	     -0.31607881	     -3.72177377	      0.22156274	     -0.29176505	    -46.52477756	      1.61805170	     -2.16361292	      0.00000000	      0.00000000	     45.75091386	    -23.55653497	      3.57824161	     82.18211397	     66.74332579	     11.36232391	     20.28413525	     52.58090820	    -25.53154142	     15.87520885	     75.98928976	     57.20436946	      9.09200178	     14.21423005
     32.57000000	      0.37154471	      5.43624461	     93.99599449	      0.40256984	      0.93852083	      0.29796641	      5.42160052	     -4.51420997	     -0.54476712	      0.27451412	    -15.72850076	      6.93139667	      0.00000000	      0.00000000	      5.93120538	     -5.85597138	      0.96885730	      0.22673531	    -12.99097618	      6.00894036	      0.00000000	      0.00000000	     -6.51271395	      0.14252931	     -0.40042056	    -12.09476108	      0.18956398	     -0.42544685	    -10.69973775	      0.34654576	     -0.42544685	     -7.44338077	      0.34654576	     -0.35036799	     -6.04770617	      0.29064577	     -0.32534171	     -3.72136475	      0.22077790	     -0.30031542	    -46.51966448	      1.61232005	     -2.22701905	      0.00000000	      0.00000000	     43.62933630	    -23.52726356	      2.76559134	     83.92634430	     66.94347452	     11.19929286	     20.40501248	     50.30248890	    -25.60680382	     14.65602118	     77.93675667	     57.65420707	      8.71179147	     14.25349198
     32.58000000	      0.42021950	      5.82693648	     93.99247554	      0.40249909	      0.93898830	      0.29572567	      4.77680017	     -4.44172315	     -0.69681482	      0.27232994	    -15.60335629	      7.05712108	      0.00000000	      0.00000000	      5.39961542	     -5.94978760	      0.87498682	      0.22831623	    -13.08155624	      6.34039645	      0.00000000	      0.00000000	     -6.50434445	      0.14197165	     -0.41019486	    -12.07921807	      0.18882230	     -0.43583204	    -10.68598749	      0.34518988	     -0.43583204	     -7.43381527	      0.34518988	     -0.35892050	     -6.03993425	      0.28950860	     -0.33328332	     -3.71658242	      0.21991409	     -0.30764614	    -46.45988194	      1.60601174	     -2.28138074	      0.00000000	      0.00000000	     41.55036688	    -23.46039809	      2.00817123	     85.55835080	     67.16248511	     11.04437008	     20.55341186	     48.00293284	    -25.64913157	     13.48070070	     79.80104941	     58.14321778	      8.33572329	     14.30999610
     32.59000000	      0.49113328	      6.17883246	     93.95095314	      0.40242843	      0.93935802	      0.29344519	      4.16327515	     -4.35607548	     -0.89352424	      0.26934870	    -15.43254386	      7.20930900	      0.00000000	      0.00000000	      4.86937345	     -6.06747659	      0.71755964	      0.22877605	    -13.10790235	      6.70545636	      0.00000000	      0.00000000	     -6.48615912	      0.14064463	     -0.41650390	    -12.04544610	      0.18705736	     -0.44253539	    -10.65611082	      0.34196336	     -0.44253539	     -7.41303126	      0.34196336	     -0.36444091	     -6.02304736	      0.28680253	     -0.33840942	     -3.70619132	      0.21785853	     -0.31237793	    -46.32998599	      1.59100021	     -2.31646974	      0.00000000	      0.00000000	     39.48943564	    -23.42316857	      1.32610238	     86.98288930	     67.42260859	     10.87641657	     20.75375746	     45.69663161	    -25.69210878	     12.28580626	     81.57659421	     58.71292418	      7.93096114	     14.41748695
     32.60000000	      0.54681484	      6.50763292	     93.87087747	      0.40239405	      0.93962628	      0.29111492	      3.57412678	     -4.28213071	     -1.07354464	      0.26627030	    -15.25616438	      7.41462651	      0.00000000	      0.00000000	      4.32189689	     -6.16270134	      0.51606280	      0.22832196	    -13.08188457	      7.09192462	      0.00000000	      0.00000000	     -6.44851868	      0.13489328	     -0.41414825	    -11.97554404	      0.17940807	     -0.44003251	    -10.59427134	      0.32797953	     -0.44003251	     -7.37001200	      0.32797953	     -0.36237972	     -5.98809444	      0.27507438	     -0.33649545	     -3.68468357	      0.20894970	     -0.31061118	    -46.06112407	      1.52593980	     -2.30336830	      0.00000000	      0.00000000	     37.50333667	    -23.33537734	      0.81852951	     88.08952380	     67.54992882	     10.79636298	     20.83070794	     43.56365359	    -25.64713838	     11.49941750	     82.91137624	     59.00825394	      7.73644949	     14.45801876
     32.61000000	      0.62693824	      6.92641978	     93.74882732	      0.40235007	      0.94006338	      0.28895376	      2.95367039	     -4.16809818	     -1.00896583	      0.26499808	    -15.18327155	      7.49570239	      0.00000000	      0.00000000	      3.72710388	     -6.27359726	      0.44705054	      0.22991594	    -13.17321295	      7.37219095	      0.00000000	      0.00000000	     -6.44779980	      0.13417939	     -0.41110385	    -11.97420901	      0.17845859	     -0.43679784	    -10.59309029	      0.32624377	     -0.43679784	     -7.36919039	      0.32624377	     -0.35971587	     -5.98742689	      0.27361861	     -0.33402188	     -3.68427280	      0.20784387	     -0.30832789	    -46.05598918	      1.51786408	     -2.28643630	      0.00000000	      0.00000000	     35.53891394	    -23.15443250	      0.13476627	     89.48846246	     67.75580747	     10.68683991	     20.92502112	     41.29799300	    -25.51064922	     10.19804365	     84.60398841	     59.47808716	      7.46022601	     14.52692701
     32.62000000	      0.71754640	      7.38675696	     93.59336672	      0.40239409	      0.94054806	      0.28680172	      2.28388810	     -4.03895888	     -0.93244773	      0.26347540	    -15.09602852	      7.53626826	      0.00000000	      0.00000000	      3.08406043	     -6.41196919	      0.34005507	      0.23148872	    -13.26332643	      7.59076303	      0.00000000	      0.00000000	     -6.44852691	      0.12770893	     -0.41993278	    -11.97555932	      0.16985288	     -0.44617857	    -10.59428485	      0.31051150	     -0.44617857	     -7.37002140	      0.31051150	     -0.36744118	     -5.98810208	      0.26042406	     -0.34119538	     -3.68468827	      0.19782114	     -0.31494958	    -46.06118284	      1.44466901	     -2.33554012	      0.00000000	      0.00000000	     33.79407799	    -23.02123448	     -0.29553492	     90.53528806	     68.13958242	     10.51452955	     21.14346375	     39.00130637	    -25.44216587	      8.83302449	     86.20353897	     60.33483110	      7.04470348	     14.81202856
